<?xml version="1.0" encoding="iso-8859-1"?>
<!-- Generator: Adobe Illustrator 19.0.0, SVG Export Plug-In . SVG Version: 6.00 Build 0)  -->
<svg xmlns="http://www.w3.org/2000/svg" xmlns:xlink="http://www.w3.org/1999/xlink" version="1.1" id="Capa_1" x="0px" y="0px" viewBox="0 0 522.462 522.462" style="enable-background:new 0 0 522.462 522.462;" xml:space="preserve" width="512px" height="512px">
<g>
	<g>
		<path d="M301.592,170.976c-1.916,1.916-4.68,3.178-7.706,3.178c-2.786,0-5.529-1.067-7.706-3.178l-65.308-65.308    c-4.245-4.245-4.245-11.146,0-15.391s11.146-4.245,15.391,0l46.739,46.717V10.885C283.001,4.876,287.899,0,293.885,0    c6.008,0,10.885,4.876,10.885,10.885v126.109l46.717-46.717c4.245-4.245,11.146-4.245,15.391,0c4.245,4.245,4.245,11.146,0,15.391    L301.592,170.976z M10.885,65.308h76.192c5.05,0,9.448,3.483,10.602,8.403l28.779,122.212h385.119    c3.505,0,6.792,1.676,8.838,4.528s2.591,6.509,1.48,9.818l-65.308,195.923c-1.48,4.419-5.616,7.423-10.319,7.423H177.659    l5.116,21.769h230.841c24.033,0,43.538,19.549,43.538,43.538c0,24.033-19.505,43.538-43.538,43.538    c-24.011,0-43.538-19.505-43.538-43.538c0-7.946,2.308-15.326,6.052-21.769H211.663c3.744,6.444,6.03,13.823,6.03,21.769    c0,24.033-19.505,43.538-43.538,43.538c-24.011,0-43.538-19.505-43.538-43.538c0-19.375,12.8-35.636,30.346-41.274L78.457,87.077    H10.885c-5.987,0-10.885-4.876-10.885-10.885S4.899,65.308,10.885,65.308z" fill="#FFFFFF"/>
	</g>
</g>
<g>
</g>
<g>
</g>
<g>
</g>
<g>
</g>
<g>
</g>
<g>
</g>
<g>
</g>
<g>
</g>
<g>
</g>
<g>
</g>
<g>
</g>
<g>
</g>
<g>
</g>
<g>
</g>
<g>
</g>
</svg>
