<?xml version="1.0" encoding="utf-8"?>
<!-- Generator: Adobe Illustrator 19.0.0, SVG Export Plug-In . SVG Version: 6.00 Build 0)  -->
<svg version="1.1" id="Layer_1" xmlns="http://www.w3.org/2000/svg" xmlns:xlink="http://www.w3.org/1999/xlink" x="0px" y="0px"
	 viewBox="0 0 810.1 106" style="enable-background:new 0 0 810.1 106;" xml:space="preserve">
<style type="text/css">
	.st0{fill:#FF5916;}
	.st1{fill:none;}
	.st2{fill:#FFFFFF;}
	.st3{clip-path:url(#SVGID_4_);}
	.st4{fill:#27ADE4;}
	.st5{fill:#2D78BC;}
	.st6{clip-path:url(#SVGID_6_);}
	.st7{fill:#3C80AD;}
	.st8{fill:#931B1D;}
	.st9{fill:#F16622;}
	.st10{fill:#F7981D;}
	.st11{fill:#CB2026;}
	.st12{clip-path:url(#SVGID_8_);}
	.st13{fill:#F3F2F2;}
	.st14{fill:#293688;}
	.st15{clip-path:url(#SVGID_10_);}
</style>
<g>
	<g>
		<path class="st0" d="M645.5,91.8c0,7.8-6.3,14.2-14.2,14.2H507.7c-7.8,0-14.2-6.3-14.2-14.2V14.2c0-7.8,6.3-14.2,14.2-14.2h123.7
			c7.8,0,14.2,6.3,14.2,14.2V91.8z"/>
		<g>
			<defs>
				<rect id="SVGID_1_" x="500.8" y="26" width="136" height="57"/>
			</defs>
			<clipPath id="SVGID_2_">
				<use xlink:href="#SVGID_1_"  style="overflow:visible;"/>
			</clipPath>
			<g style="clip-path:url(#SVGID_2_);">
				
					<image style="overflow:visible;" width="225" height="225" xlink:href="34D07609.jpg"  transform="matrix(0.8667 0 0 0.8667 470.8408 -47)">
				</image>
			</g>
		</g>
		<rect x="503.8" y="12" class="st1" width="124" height="81"/>
	</g>
	<g>
		<path class="st2" d="M481,91.8c0,7.8-6.3,14.2-14.2,14.2H343.2c-7.8,0-14.2-6.3-14.2-14.2V14.2C329,6.3,335.4,0,343.2,0h123.7
			c7.8,0,14.2,6.3,14.2,14.2V91.8z"/>
		<g>
			<defs>
				<path id="SVGID_3_" d="M481,91.8c0,7.8-6.3,14.2-14.2,14.2H343.2c-7.8,0-14.2-6.3-14.2-14.2V14.2C329,6.3,335.4,0,343.2,0h123.7
					c7.8,0,14.2,6.3,14.2,14.2V91.8z"/>
			</defs>
			<clipPath id="SVGID_4_">
				<use xlink:href="#SVGID_3_"  style="overflow:visible;"/>
			</clipPath>
			<g class="st3">
				<path class="st4" d="M499.7,53.7c0,52.6-42.6,95.2-95.2,95.2c-52.6,0-95.2-42.6-95.2-95.2c0-52.6,42.6-95.2,95.2-95.2
					C457-41.6,499.7,1.1,499.7,53.7L499.7,53.7z M474.7,53.7"/>
				<path class="st5" d="M358.2,41.1l-2.2-5.4l-2.2,5.4 M406.5,39c-0.4,0.3-1,0.3-1.6,0.3H401v-3h3.9c0.6,0,1.1,0,1.5,0.2
					c0.4,0.2,0.7,0.6,0.7,1.2C407.1,38.3,406.9,38.8,406.5,39 M434.2,41.1l-2.2-5.4l-2.2,5.4H434.2z M382.5,47h-3.3l0-10.6L374.5,47
					h-2.8l-4.7-10.6V47h-6.5l-1.2-3h-6.7l-1.2,3h-3.5l5.7-13.6h4.8l5.4,12.9V33.4h5.2l4.2,9.2l3.8-9.2h5.3V47z M395.6,47h-10.7V33.4
					h10.7v2.8h-7.5v2.4h7.3v2.8h-7.3v2.7h7.5L395.6,47z M410.6,37.1c0,2.2-1.4,3.3-2.3,3.6c0.7,0.3,1.3,0.7,1.6,1.1
					c0.5,0.7,0.5,1.3,0.5,2.5V47h-3.2l0-1.7c0-0.8,0.1-2-0.5-2.6c-0.5-0.5-1.2-0.6-2.3-0.6H401V47h-3.2V33.4h7.4
					c1.6,0,2.8,0,3.9,0.6C410,34.7,410.6,35.6,410.6,37.1 M415.8,47h-3.3V33.4h3.3V47z M453.7,47h-4.5l-6.1-10.2V47h-6.5l-1.2-3
					h-6.7l-1.2,3h-3.7c-1.6,0-3.5-0.4-4.6-1.5c-1.1-1.2-1.7-2.7-1.7-5.2c0-2,0.3-3.9,1.7-5.3c1-1.1,2.7-1.6,4.9-1.6h3.1v2.9h-3
					c-1.2,0-1.8,0.2-2.5,0.8c-0.5,0.6-0.9,1.7-0.9,3.1c0,1.5,0.3,2.5,0.9,3.2c0.5,0.5,1.4,0.7,2.2,0.7h1.4l4.5-10.7h4.8l5.4,12.8
					V33.4h4.9l5.6,9.5v-9.5h3.3V47z M347.9,49.7h5.5l1.2-3h2.8l1.2,3h10.8v-2.3l1,2.3h5.6l1-2.3v2.3h26.8l0-5h0.5
					c0.4,0,0.5,0,0.5,0.7v4.3h13.8v-1.2c1.1,0.6,2.9,1.2,5.1,1.2h5.8l1.2-3h2.8l1.2,3h11.2v-2.9l1.7,2.9h9V30.7h-8.9V33l-1.2-2.2
					h-9.1V33l-1.1-2.2h-12.3c-2.1,0-3.9,0.3-5.3,1.1v-1.1h-8.5v1.1c-0.9-0.8-2.2-1.1-3.6-1.1h-31.1l-2.1,4.9l-2.1-4.9h-9.8V33
					l-1.1-2.2h-8.3l-3.9,9l-4.4,9.9H347.9z M347.9,49.7"/>
				<path class="st2" d="M358.2,42.3l-2.2-5.4l-2.2,5.4 M406.5,40.1c-0.4,0.3-1,0.3-1.6,0.3H401v-3h3.9c0.6,0,1.1,0,1.5,0.2
					c0.4,0.2,0.7,0.6,0.7,1.2C407.1,39.4,406.9,39.9,406.5,40.1 M434.2,42.3l-2.2-5.4l-2.2,5.4H434.2z M382.5,48.1h-3.3l0-10.6
					l-4.6,10.6h-2.8l-4.7-10.6v10.6h-6.5l-1.2-3h-6.7l-1.2,3h-3.5l5.7-13.6h4.8l5.4,12.9V34.5h5.2l4.2,9.2l3.8-9.2h5.3V48.1z
					 M395.6,48.1h-10.7V34.5h10.7v2.8h-7.5v2.4h7.3v2.8h-7.3v2.7h7.5L395.6,48.1z M410.6,38.2c0,2.2-1.4,3.3-2.3,3.6
					c0.7,0.3,1.3,0.8,1.6,1.1c0.5,0.7,0.5,1.3,0.5,2.5v2.7h-3.2l0-1.7c0-0.8,0.1-2-0.5-2.6c-0.5-0.5-1.2-0.6-2.3-0.6H401v4.9h-3.2
					V34.5h7.4c1.6,0,2.8,0,3.9,0.6C410,35.8,410.6,36.7,410.6,38.2 M415.8,48.1h-3.3V34.5h3.3V48.1z M453.7,48.1h-4.5l-6.1-10.2
					v10.2h-6.5l-1.2-3h-6.7l-1.2,3h-3.7c-1.6,0-3.5-0.3-4.6-1.5c-1.1-1.2-1.7-2.7-1.7-5.2c0-2,0.3-3.9,1.7-5.3
					c1-1.1,2.7-1.6,4.9-1.6h3.1v2.9h-3c-1.2,0-1.8,0.2-2.5,0.8c-0.5,0.6-0.9,1.7-0.9,3.1c0,1.5,0.3,2.5,0.9,3.2
					c0.5,0.5,1.4,0.7,2.2,0.7h1.4l4.5-10.7h4.8l5.4,12.8V34.5h4.9l5.6,9.5v-9.5h3.3V48.1z M347.9,50.8h5.5l1.2-3h2.8l1.2,3h10.8
					v-2.3l1,2.3h5.6l1-2.3v2.3h26.8l0-5h0.5c0.4,0,0.5,0,0.5,0.7v4.3h13.8v-1.2c1.1,0.6,2.9,1.2,5.1,1.2h5.8l1.2-3h2.8l1.2,3h11.2
					v-2.9l1.7,2.9h9V31.8h-8.9v2.2l-1.2-2.2h-9.1v2.2l-1.1-2.2h-12.3c-2.1,0-3.9,0.3-5.3,1.1v-1.1h-8.5v1.1
					c-0.9-0.8-2.2-1.1-3.6-1.1h-31.1l-2.1,4.9l-2.1-4.9h-9.8v2.2l-1.1-2.2h-8.3l-3.9,9l-4.4,9.9H347.9z M347.9,50.8"/>
				<path class="st5" d="M463.7,62.5v-8.7h-8c-1.8,0-3.1,0.4-4,1.1v-1.1h-8.8c-1.4,0-3,0.4-3.8,1.1v-1.1h-15.7v1.1
					c-1.2-0.9-3.3-1.1-4.3-1.1h-10.3v1.1c-1-1-3.2-1.1-4.5-1.1h-11.6l-2.6,2.9l-2.5-2.9h-17.3v18.9h16.9l2.7-2.9l2.6,2.9l10.4,0
					v-4.5h1c1.4,0,3,0,4.5-0.7v5.1h8.6v-4.9h0.4c0.5,0,0.6,0,0.6,0.6v4.4h26.2c1.7,0,3.4-0.4,4.4-1.2v1.2h8.3c1.7,0,3.4-0.2,4.7-0.9
					v0c1.9-1.2,3.1-3.3,3.1-5.7C464.7,64.8,464.4,63.5,463.7,62.5L463.7,62.5z M404.2,65.5h-4v4.6h-6.2l-3.9-4.5l-4.1,4.5h-12.7
					V56.5h12.9l3.9,4.4l4.1-4.4h10.2c2.5,0,5.4,0.7,5.4,4.5C409.7,64.7,407,65.5,404.2,65.5L404.2,65.5z M423.4,64.9
					c0.5,0.7,0.5,1.3,0.5,2.5v2.7h-3.2v-1.7c0-0.8,0.1-2-0.5-2.7c-0.5-0.5-1.2-0.6-2.4-0.6h-3.4v5h-3.2V56.5h7.4
					c1.6,0,2.8,0.1,3.9,0.6c1,0.6,1.6,1.5,1.6,3c0,2.2-1.4,3.3-2.3,3.6C422.6,64,423.2,64.5,423.4,64.9L423.4,64.9z M436.6,59.3
					h-7.5v2.5h7.3v2.8h-7.3v2.7l7.5,0v2.8h-10.7V56.5h10.7V59.3z M444.8,70.1h-6.2v-2.9h6.2c0.6,0,1-0.1,1.3-0.3
					c0.2-0.2,0.4-0.5,0.4-0.9c0-0.4-0.2-0.7-0.4-0.9c-0.2-0.2-0.6-0.3-1.1-0.3c-3-0.1-6.7,0.1-6.7-4.2c0-2,1.2-4,4.6-4h6.4v2.9h-5.9
					c-0.6,0-1,0-1.3,0.2c-0.3,0.2-0.5,0.5-0.5,1c0,0.5,0.3,0.9,0.7,1c0.3,0.1,0.7,0.2,1.2,0.2l1.7,0c1.7,0,2.9,0.3,3.7,1.1
					c0.6,0.7,1,1.5,1,2.9C449.8,68.7,448,70.1,444.8,70.1L444.8,70.1z M461.2,68.8c-0.8,0.9-2.2,1.3-4,1.3h-6.2v-2.9h6.2
					c0.6,0,1-0.1,1.3-0.3c0.2-0.2,0.4-0.5,0.4-0.9c0-0.4-0.2-0.7-0.4-0.9c-0.2-0.2-0.6-0.3-1.1-0.3c-3-0.1-6.8,0.1-6.8-4.2
					c0-2,1.2-4,4.6-4h6.3v2.9h-5.7c-0.6,0-1,0-1.3,0.2c-0.3,0.2-0.5,0.5-0.5,1c0,0.5,0.3,0.9,0.7,1c0.3,0.1,0.7,0.2,1.2,0.2l1.7,0
					c1.8,0,2.9,0.3,3.6,1.1c0.1,0.1,0.2,0.2,0.3,0.3c0,0-0.1-0.1-0.1-0.1c0.6,0.7,0.9,1.7,0.9,2.7C462.4,66.9,462,68,461.2,68.8
					L461.2,68.8z M384.4,59.3l3.5,4l-3.7,4h-7.9v-2.7h7v-2.8h-7v-2.5H384.4z M392,63.3l4.9-5.4v10.9L392,63.3z M406.3,61
					c0,1.2-0.8,1.8-2,1.8h-4.1v-3.5h4.2C405.5,59.3,406.3,59.8,406.3,61L406.3,61z M420.6,60.8c0,0.6-0.2,1-0.7,1.3
					c-0.4,0.3-1,0.3-1.6,0.3h-3.9v-3h3.9c0.6,0,1.1,0,1.5,0.2C420.3,59.8,420.6,60.2,420.6,60.8L420.6,60.8z M420.6,60.8"/>
				<path class="st2" d="M463.7,63.6v-8.7h-8c-1.8,0-3.1,0.4-4,1.1v-1.1h-8.8c-1.4,0-3,0.4-3.8,1.1v-1.1h-15.7V56
					c-1.2-0.9-3.3-1.1-4.3-1.1h-10.3V56c-1-1-3.2-1.1-4.5-1.1h-11.6l-2.6,2.9l-2.5-2.9h-17.3v18.9h16.9l2.7-2.9l2.6,2.9l10.4,0v-4.5
					h1c1.4,0,3,0,4.5-0.7v5.1h8.6v-4.9h0.4c0.5,0,0.6,0,0.6,0.6v4.4h26.2c1.7,0,3.4-0.4,4.4-1.2v1.2h8.3c1.7,0,3.4-0.2,4.7-0.9v0
					c1.9-1.2,3.1-3.3,3.1-5.7C464.7,65.9,464.4,64.6,463.7,63.6L463.7,63.6z M404.2,66.6h-4v4.6h-6.2l-3.9-4.5l-4.1,4.5h-12.7V57.6
					h12.9L390,62l4.1-4.4h10.2c2.5,0,5.4,0.7,5.4,4.5C409.7,65.8,407,66.6,404.2,66.6L404.2,66.6z M423.4,66
					c0.5,0.7,0.5,1.3,0.5,2.5v2.7h-3.2v-1.7c0-0.8,0.1-2-0.5-2.7c-0.5-0.5-1.2-0.6-2.4-0.6h-3.4v5h-3.2V57.6h7.4
					c1.6,0,2.8,0.1,3.9,0.6c1,0.6,1.6,1.5,1.6,3c0,2.2-1.4,3.3-2.3,3.6C422.6,65.1,423.2,65.6,423.4,66L423.4,66z M436.6,60.4h-7.5
					v2.5h7.3v2.8h-7.3v2.7l7.5,0v2.8h-10.7V57.6h10.7V60.4z M444.8,71.2h-6.2v-2.9h6.2c0.6,0,1-0.1,1.3-0.3c0.2-0.2,0.4-0.5,0.4-0.9
					c0-0.4-0.2-0.7-0.4-0.9c-0.2-0.2-0.6-0.3-1.1-0.3c-3-0.1-6.7,0.1-6.7-4.2c0-2,1.2-4,4.6-4h6.4v2.9h-5.9c-0.6,0-1,0-1.3,0.2
					c-0.3,0.2-0.5,0.5-0.5,1c0,0.5,0.3,0.9,0.7,1c0.3,0.1,0.7,0.2,1.2,0.2l1.7,0.1c1.7,0,2.9,0.3,3.7,1.1c0.6,0.7,1,1.5,1,2.9
					C449.8,69.8,448,71.2,444.8,71.2L444.8,71.2z M461.2,69.9c-0.8,0.9-2.2,1.3-4,1.3h-6.2v-2.9h6.2c0.6,0,1-0.1,1.3-0.3
					c0.2-0.2,0.4-0.5,0.4-0.9c0-0.4-0.2-0.7-0.4-0.9c-0.2-0.2-0.6-0.3-1.1-0.3c-3-0.1-6.8,0.1-6.8-4.2c0-2,1.2-4,4.6-4h6.3v2.9h-5.7
					c-0.6,0-1,0-1.3,0.2c-0.3,0.2-0.5,0.5-0.5,1c0,0.5,0.3,0.9,0.7,1c0.3,0.1,0.7,0.2,1.2,0.2l1.7,0c1.8,0,2.9,0.3,3.6,1.1
					c0.1,0.1,0.2,0.2,0.3,0.3c0,0-0.1-0.1-0.1-0.1c0.6,0.7,0.9,1.7,0.9,2.7C462.4,68,462,69.1,461.2,69.9L461.2,69.9z M384.4,60.4
					l3.5,4l-3.7,4h-7.9v-2.7h7v-2.8h-7v-2.5H384.4z M392,64.4l4.9-5.4v10.9L392,64.4z M406.3,62.1c0,1.2-0.8,1.8-2,1.8h-4.1v-3.5
					h4.2C405.5,60.4,406.3,60.9,406.3,62.1L406.3,62.1z M420.6,61.9c0,0.6-0.2,1-0.7,1.3c-0.4,0.3-1,0.3-1.6,0.3h-3.9v-3h3.9
					c0.6,0,1.1,0,1.5,0.2C420.3,60.9,420.6,61.3,420.6,61.9L420.6,61.9z M420.6,61.9"/>
			</g>
		</g>
	</g>
	<g>
		<path class="st2" d="M316.5,91.8c0,7.8-6.3,14.2-14.2,14.2H178.7c-7.8,0-14.2-6.3-14.2-14.2V14.2c0-7.8,6.3-14.2,14.2-14.2h123.7
			c7.8,0,14.2,6.3,14.2,14.2V91.8z"/>
		<g>
			<defs>
				<path id="SVGID_5_" d="M316.5,91.8c0,7.8-6.3,14.2-14.2,14.2H178.7c-7.8,0-14.2-6.3-14.2-14.2V14.2c0-7.8,6.3-14.2,14.2-14.2
					h123.7c7.8,0,14.2,6.3,14.2,14.2V91.8z"/>
			</defs>
			<clipPath id="SVGID_6_">
				<use xlink:href="#SVGID_5_"  style="overflow:visible;"/>
			</clipPath>
			<g class="st6">
				<path class="st7" d="M332.3,54.9c0,50.9-41.3,92.2-92.2,92.2c-50.9,0-92.2-41.3-92.2-92.2c0-50.9,41.3-92.2,92.2-92.2
					C291-37.4,332.3,3.9,332.3,54.9L332.3,54.9z M332.3,54.9"/>
				<path class="st8" d="M217.1,20.8C199.3,20.9,185,35.3,185,53.1c0,17.9,14.5,32.3,32.3,32.3c8.4,0,16-3.2,21.7-8.4v0h0
					c1.2-1.1,2.3-2.2,3.3-3.5h-6.6c-0.9-1.1-1.7-2.2-2.4-3.3h11.4c0.7-1.1,1.3-2.3,1.9-3.5h-15.2c-0.5-1.1-1-2.2-1.3-3.4h17.9
					c1.1-3.2,1.7-6.7,1.7-10.3c0-2.4-0.3-4.7-0.7-6.9h-19.7c0.2-1.2,0.6-2.3,0.9-3.4h17.9c-0.4-1.2-0.9-2.3-1.4-3.5h-15.1
					c0.5-1.2,1.2-2.3,1.9-3.4h11.4c-0.8-1.2-1.6-2.4-2.5-3.5h-6.4c1-1.2,2.1-2.3,3.2-3.3c-5.7-5.2-13.4-8.4-21.7-8.4
					C217.2,20.8,217.1,20.8,217.1,20.8L217.1,20.8z M217.1,20.8"/>
				<path class="st9" d="M292.9,53.1c0,17.9-14.4,32.4-32.3,32.4c-17.8,0-32.3-14.5-32.3-32.3v0c0-17.9,14.4-32.4,32.3-32.4
					C278.4,20.8,292.9,35.3,292.9,53.1C292.9,53.1,292.9,53.1,292.9,53.1L292.9,53.1z M292.9,53.1"/>
				<path class="st10" d="M292.9,53.5c0,17.9-14.4,32.4-32.3,32.4c-17.8,0-32.3-14.5-32.3-32.3v0c0-17.9,14.4-32.4,32.3-32.4
					C278.4,21.1,292.9,35.6,292.9,53.5C292.9,53.5,292.9,53.5,292.9,53.5L292.9,53.5z M292.9,53.5"/>
				<path class="st11" d="M217.1,21.2C199.3,21.3,185,35.7,185,53.5c0,17.9,14.5,32.4,32.3,32.4c8.4,0,16-3.2,21.7-8.4v0h0
					c1.2-1.1,2.3-2.2,3.3-3.5h-6.6c-0.9-1.1-1.7-2.2-2.4-3.3h11.4c0.7-1.1,1.3-2.3,1.9-3.5h-15.2c-0.5-1.1-1-2.2-1.3-3.4h17.9
					c1.1-3.2,1.7-6.7,1.7-10.3c0-2.4-0.3-4.7-0.7-6.9h-19.7c0.2-1.1,0.6-2.3,0.9-3.4h17.9c-0.4-1.2-0.9-2.3-1.4-3.5h-15.1
					c0.5-1.2,1.2-2.3,1.9-3.4h11.4c-0.8-1.2-1.6-2.4-2.5-3.5h-6.4c1-1.2,2.1-2.3,3.2-3.3c-5.7-5.2-13.4-8.4-21.7-8.4
					C217.2,21.2,217.1,21.2,217.1,21.2L217.1,21.2z M217.1,21.2"/>
				<path class="st2" d="M228.9,61.7l0.4-2.9c-0.2,0-0.6,0.1-0.9,0.1c-1.2,0-1.3-0.6-1.3-1.1l1-6h1.8l0.4-3.2h-1.7l0.3-2h-3.4
					c-0.1,0.1-2,11.3-2,12.7c0,2,1.1,2.9,2.7,2.9C227.6,62.2,228.5,61.8,228.9,61.7L228.9,61.7z M228.9,61.7"/>
				<path class="st2" d="M230,56.2c0,4.9,3.2,6,5.9,6c2.5,0,3.6-0.6,3.6-0.6l0.6-3.3c0,0-1.9,0.9-3.7,0.9c-3.7,0-3-2.8-3-2.8h7
					c0,0,0.4-2.2,0.4-3.1c0-2.3-1.1-5-4.9-5C232.5,48.2,230,51.9,230,56.2L230,56.2z M236,51.3c1.9,0,1.6,2.2,1.6,2.4h-3.8
					C233.8,53.4,234.1,51.3,236,51.3L236,51.3z M236,51.3"/>
				<path class="st2" d="M257.8,61.7l0.6-3.8c0,0-1.7,0.9-2.8,0.9c-2.4,0-3.4-1.9-3.4-3.9c0-4.1,2.1-6.3,4.4-6.3c1.7,0,3.2,1,3.2,1
					l0.6-3.6c0,0-2.1-0.8-3.9-0.8c-4,0-7.8,3.4-7.8,9.9c0,4.3,2.1,7.1,6.2,7.1C255.9,62.2,257.8,61.7,257.8,61.7L257.8,61.7z
					 M257.8,61.7"/>
				<path class="st2" d="M210,48.3c-2.4,0-4.2,0.8-4.2,0.8l-0.5,3c0,0,1.5-0.6,3.7-0.6c1.3,0,2.2,0.1,2.2,1.2c0,0.6-0.1,0.9-0.1,0.9
					s-1-0.1-1.5-0.1c-3,0-6.1,1.3-6.1,5.1c0,3,2,3.7,3.3,3.7c2.4,0,3.5-1.6,3.5-1.6l-0.1,1.3h3l1.4-9.5
					C214.7,48.4,211.2,48.3,210,48.3L210,48.3z M210.7,56c0.1,0.6-0.4,3.3-2.4,3.3c-1.1,0-1.3-0.8-1.3-1.3c0-0.9,0.5-2.1,3-2.1
					C210.6,55.9,210.6,56,210.7,56L210.7,56z M210.7,56"/>
				<path class="st2" d="M217.9,62.1c0.8,0,5.2,0.2,5.2-4.4c0-4.3-4.1-3.4-4.1-5.2c0-0.9,0.7-1.1,1.9-1.1c0.5,0,2.3,0.2,2.3,0.2
					l0.4-3c0,0-1.2-0.3-3.2-0.3c-2.5,0-5.1,1-5.1,4.5c0,3.9,4.3,3.5,4.3,5.2c0,1.1-1.2,1.2-2.1,1.2c-1.6,0-3-0.6-3.1-0.5l-0.5,3
					C214.1,61.7,215,62.1,217.9,62.1L217.9,62.1z M217.9,62.1"/>
				<path class="st2" d="M286.2,45.5l-0.7,4.6c0,0-1.3-1.8-3.3-1.8c-3.2,0-5.8,3.8-5.8,8.2c0,2.8,1.4,5.6,4.3,5.6
					c2.1,0,3.2-1.4,3.2-1.4l-0.2,1.2h3.3l2.6-16.4L286.2,45.5z M284.6,54.5c0,1.8-0.9,4.2-2.8,4.2c-1.2,0-1.8-1-1.8-2.7
					c0-2.7,1.2-4.4,2.7-4.4C284,51.7,284.6,52.5,284.6,54.5L284.6,54.5z M284.6,54.5"/>
				<path class="st2" d="M191.4,61.9l2.1-12.4l0.3,12.4h2.4l4.4-12.4l-2,12.4h3.5l2.7-16.4h-5.4L196,55.6l-0.2-10.1h-5l-2.7,16.4
					H191.4z M191.4,61.9"/>
				<path class="st2" d="M244.3,61.9c1-5.7,1.2-10.3,3.6-9.5c0.4-2.2,0.8-3.1,1.3-4c0,0-0.2,0-0.7,0c-1.5,0-2.7,2.1-2.7,2.1l0.3-1.9
					h-3.2l-2.1,13.4H244.3z M244.3,61.9"/>
				<path class="st2" d="M265.7,48.3c-2.4,0-4.2,0.8-4.2,0.8l-0.5,3c0,0,1.5-0.6,3.7-0.6c1.3,0,2.2,0.1,2.2,1.2
					c0,0.6-0.1,0.9-0.1,0.9s-1-0.1-1.5-0.1c-3,0-6.1,1.3-6.1,5.1c0,3,2,3.7,3.3,3.7c2.4,0,3.5-1.6,3.5-1.6l-0.1,1.3h3l1.3-9.5
					C270.4,48.4,266.9,48.3,265.7,48.3L265.7,48.3z M266.4,56c0.1,0.6-0.4,3.3-2.4,3.3c-1.1,0-1.3-0.8-1.3-1.3c0-0.9,0.5-2.1,3-2.1
					C266.3,55.9,266.3,56,266.4,56L266.4,56z M266.4,56"/>
				<path class="st2" d="M273.2,61.9c1-5.7,1.2-10.3,3.6-9.5c0.4-2.2,0.8-3.1,1.3-4c0,0-0.2,0-0.7,0c-1.5,0-2.7,2.1-2.7,2.1l0.3-1.9
					h-3.2l-2.1,13.4H273.2z M273.2,61.9"/>
			</g>
		</g>
	</g>
	<g>
		<path class="st2" d="M152,91.8c0,7.8-6.3,14.2-14.2,14.2H14.2C6.3,106,0,99.7,0,91.8V14.2C0,6.3,6.3,0,14.2,0h123.7
			c7.8,0,14.2,6.3,14.2,14.2V91.8z"/>
		<g>
			<defs>
				<path id="SVGID_7_" d="M152,91.8c0,7.8-6.3,14.2-14.2,14.2H14.2C6.3,106,0,99.7,0,91.8V14.2C0,6.3,6.3,0,14.2,0h123.7
					c7.8,0,14.2,6.3,14.2,14.2V91.8z"/>
			</defs>
			<clipPath id="SVGID_8_">
				<use xlink:href="#SVGID_7_"  style="overflow:visible;"/>
			</clipPath>
			<g class="st12">
				<path class="st13" d="M185.3,52.5c0,38.8-49.9,70.2-111.5,70.2c-61.6,0-111.5-31.4-111.5-70.2c0-38.8,49.9-70.2,111.5-70.2
					C135.4-17.7,185.3,13.7,185.3,52.5L185.3,52.5z M185.3,52.5"/>
				<path class="st14" d="M58.2,66l5.4-31.7h8.7L66.9,66H58.2z M58.2,66"/>
				<path class="st14" d="M97.9,35.1c-1.7-0.6-4.4-1.3-7.8-1.3c-8.6,0-14.7,4.3-14.7,10.5c0,4.6,4.3,7.1,7.6,8.6
					c3.4,1.6,4.5,2.5,4.5,3.9c0,2.1-2.7,3.1-5.2,3.1c-3.5,0-5.3-0.5-8.2-1.7L73,57.7l-1.2,7.1c2,0.9,5.8,1.7,9.7,1.7
					c9.1,0,15.1-4.3,15.2-10.8c0-3.6-2.3-6.4-7.3-8.6c-3-1.5-4.9-2.4-4.9-3.9c0-1.3,1.6-2.7,5-2.7c2.8,0,4.9,0.6,6.5,1.2l0.8,0.4
					L97.9,35.1z M97.9,35.1"/>
				<path class="st14" d="M112.7,34.3c-2.1,0-3.6,0.6-4.5,2.7L95.3,66h9.2l1.8-4.9h11l1,4.9h8.2l-7.2-31.7L112.7,34.3L112.7,34.3
					L112.7,34.3z M108.8,54.8c0.7-1.8,3.5-8.9,3.5-8.9c0,0.1,0.7-1.8,1.2-3l0.6,2.7c0,0,1.7,7.6,2,9.2H108.8z M108.8,54.8"/>
				<path class="st14" d="M42.4,56l-0.8-4.4c-1.6-5.1-6.5-10.6-12-13.3L37.2,66h9.2l13.8-31.7h-9.2L42.4,56z M42.4,56"/>
				<path class="st10" d="M20.1,34.3v0.5c10.9,2.6,18.5,9.3,21.5,16.9L38.4,37c-0.5-2-2.1-2.6-4-2.7L20.1,34.3z M20.1,34.3"/>
				<path class="st10" d="M73.8,122.8c43,0,80.4-15.4,98.9-37.9H-25.1C-6.6,107.4,30.8,122.8,73.8,122.8L73.8,122.8z M73.8,122.8"/>
				<path class="st14" d="M73.8-17.7c-42.4,0-79.2,14.9-98.1,36.8h196.1C153-2.8,116.1-17.7,73.8-17.7L73.8-17.7z M73.8-17.7"/>
			</g>
		</g>
	</g>
	<g>
		<path class="st2" d="M810.1,91.8c0,7.8-6.3,14.2-14.2,14.2H672.2c-7.8,0-14.2-6.3-14.2-14.2V14.2c0-7.8,6.3-14.2,14.2-14.2h123.7
			c7.8,0,14.2,6.3,14.2,14.2V91.8z"/>
		<g>
			<defs>
				<path id="SVGID_9_" d="M810.1,91.8c0,7.8-6.3,14.2-14.2,14.2H672.2c-7.8,0-14.2-6.3-14.2-14.2V14.2c0-7.8,6.3-14.2,14.2-14.2
					h123.7c7.8,0,14.2,6.3,14.2,14.2V91.8z"/>
			</defs>
			<clipPath id="SVGID_10_">
				<use xlink:href="#SVGID_9_"  style="overflow:visible;"/>
			</clipPath>
			<g class="st15">
				<defs>
					<rect id="SVGID_11_" x="651.6" y="17.6" width="163.4" height="73.8"/>
				</defs>
				<clipPath id="SVGID_12_">
					<use xlink:href="#SVGID_11_"  style="overflow:visible;"/>
				</clipPath>
				<g transform="matrix(1 0 0 1 0 0)" style="clip-path:url(#SVGID_12_);">
					
						<image style="overflow:visible;" width="960" height="420" xlink:href="34D0760B.jpg"  transform="matrix(0.3338 0 0 0.3338 522.9677 -10.7485)">
					</image>
				</g>
			</g>
		</g>
	</g>
</g>
</svg>
