<?xml version="1.0" encoding="utf-8"?>
<!-- Generator: Adobe Illustrator 16.0.0, SVG Export Plug-In . SVG Version: 6.00 Build 0)  -->
<!DOCTYPE svg PUBLIC "-//W3C//DTD SVG 1.1//EN" "http://www.w3.org/Graphics/SVG/1.1/DTD/svg11.dtd">
<svg version="1.1" id="Layer_1" xmlns="http://www.w3.org/2000/svg" xmlns:xlink="http://www.w3.org/1999/xlink" x="0px" y="0px"
	 width="83.79px" height="46.664px" viewBox="0 0 83.79 46.664" enable-background="new 0 0 83.79 46.664" xml:space="preserve">
<g>
	<path fill="#FFFFFF" d="M0,0c2.622,1.769,8.919,5.788,17.68,9.856c11.717,5.442,31.889,14.725,31.889,14.725l0.95-2.141
		c0,0-20.028-9.599-31.696-15.145C10.144,3.172,3.064,0.897,0,0"/>
	<path fill="#FFFFFF" d="M83.79,39.027c-2.631-1.759-8.945-5.749-17.727-9.772c-11.742-5.388-24.127-10.989-24.127-10.989
		l-0.937,2.147c0,0,12.238,5.918,23.933,11.406C73.632,35.899,80.722,38.146,83.79,39.027"/>
	<path fill-rule="evenodd" clip-rule="evenodd" fill="#FFFFFF" d="M76.297,7.577c-6.518-8.435-21.51-7.864-33.486,1.282
		c-11.974,9.146-16.398,23.398-9.884,31.834c6.518,8.435,21.509,7.864,33.483-1.28C78.387,30.268,82.813,16.013,76.297,7.577z
		 M74.485,12.847c0,2.409-1.635,4.388-4.044,4.388h-0.349c-0.213,0-0.423-0.028-0.63-0.059c1.711-0.246,3.03-1.709,3.03-3.489
		c0-1.949-1.582-3.519-3.534-3.519c-1.432,0-2.659,0.882-3.213,2.105c0.143-2.28,2.031-4.038,4.347-4.038h0.349
		c2.409,0,4.044,1.854,4.044,4.263V12.847z"/>
</g>
</svg>
