<?xml version="1.0" encoding="utf-8"?>
<!-- Generator: Adobe Illustrator 19.0.0, SVG Export Plug-In . SVG Version: 6.00 Build 0)  -->
<svg version="1.1" id="Layer_1" xmlns="http://www.w3.org/2000/svg" xmlns:xlink="http://www.w3.org/1999/xlink" x="0px" y="0px"
	 viewBox="0 0 307.6 185.4" style="enable-background:new 0 0 307.6 185.4;" xml:space="preserve">
<style type="text/css">
	.st0{fill-rule:evenodd;clip-rule:evenodd;}
	.st1{fill-rule:evenodd;clip-rule:evenodd;fill:#FFFFFF;}
	.st2{fill:#FFFFFF;}
</style>
<g>
	<g>
		<path class="st0" d="M307.6,113.3v8.5c-2.2,33.4-5.9,60.9-37.6,63.5h-6.7c-36.1-4.8-68.9-13.6-109.5-13.6
			c-40.6,0-73.5,8.9-109.5,13.6h-6.7C6.6,183,2.7,156.8,0,125v-15.5c1.7-24,5.7-44,20.9-53.6C32,48.9,51.1,50.9,67,54
			c15.4-29.8,43.3-54,86.8-54c43.9,0,71.4,24.7,87.1,54c13.8-2.5,32.4-5.2,43.7,0.6C303.1,64.3,305.9,86,307.6,113.3"/>
	</g>
	<g>
		<path class="st1" d="M173.7,66.6c-12,9.1-27,9.7-33.5,1.3c-6.5-8.4-2.1-22.7,9.9-31.8c12-9.1,27-9.7,33.5-1.3
			C190.1,43.2,185.7,57.4,173.7,66.6"/>
	</g>
	<g>
		<path class="st2" d="M107.3,27.1c2.6,1.8,8.9,5.8,17.7,9.9c11.7,5.4,31.9,14.7,31.9,14.7l0.9-2.1c0,0-20-9.6-31.7-15.1
			C117.4,30.3,110.3,28,107.3,27.1"/>
	</g>
	<g>
		<path class="st2" d="M191.1,66.2c-2.6-1.8-8.9-5.7-17.7-9.8c-11.7-5.4-24.1-11-24.1-11l-0.9,2.1c0,0,12.2,5.9,23.9,11.4
			C180.9,63,188,65.3,191.1,66.2"/>
	</g>
	<g>
		<path d="M177.7,35.4h-0.3c-2.3,0-4.2,1.8-4.3,4c0.6-1.2,1.8-2.1,3.2-2.1c2,0,3.5,1.6,3.5,3.5c0,1.8-1.3,3.2-3,3.5
			c0.2,0,0.4,0.1,0.6,0.1h0.3c2.4,0,4-2,4-4.4v-0.3C181.8,37.2,180.1,35.4,177.7,35.4"/>
	</g>
	<g>
		<path class="st2" d="M39.3,95.5c2.5-0.4,5.7-0.8,9.9-0.8c5.1,0,8.8,1.2,11.2,3.3c2.2,1.9,3.5,4.8,3.5,8.3c0,3.6-1.1,6.5-3.1,8.5
			c-2.7,2.9-7.2,4.4-12.2,4.4c-1.5,0-3-0.1-4.1-0.4v16h-5.2V95.5z M44.5,114.7c1.1,0.3,2.5,0.4,4.3,0.4c6.2,0,10-3,10-8.5
			c0-5.3-3.7-7.8-9.4-7.8c-2.3,0-4,0.2-4.9,0.4V114.7z"/>
		<path class="st2" d="M76.5,98.2c0.1,1.8-1.2,3.2-3.3,3.2c-1.8,0-3.1-1.4-3.1-3.2c0-1.8,1.4-3.3,3.3-3.3
			C75.2,94.9,76.5,96.4,76.5,98.2z M70.7,134.9v-28.7h5.2v28.7H70.7z"/>
		<path class="st2" d="M104.9,133.8c-1.4,0.7-4.4,1.7-8.2,1.7c-8.6,0-14.3-5.9-14.3-14.6c0-8.8,6-15.2,15.4-15.2
			c3.1,0,5.8,0.8,7.2,1.5l-1.2,4c-1.2-0.7-3.2-1.4-6-1.4c-6.6,0-10.1,4.9-10.1,10.8c0,6.6,4.3,10.7,9.9,10.7c3,0,4.9-0.8,6.4-1.4
			L104.9,133.8z"/>
		<path class="st2" d="M131.5,133.8c-1.4,0.7-4.4,1.7-8.2,1.7c-8.6,0-14.3-5.9-14.3-14.6c0-8.8,6-15.2,15.4-15.2
			c3.1,0,5.8,0.8,7.2,1.5l-1.2,4c-1.2-0.7-3.2-1.4-6-1.4c-6.6,0-10.1,4.9-10.1,10.8c0,6.6,4.3,10.7,9.9,10.7c3,0,4.9-0.8,6.4-1.4
			L131.5,133.8z"/>
		<path class="st2" d="M153.4,134.9l-0.4-3.6h-0.2c-1.6,2.3-4.7,4.3-8.8,4.3c-5.8,0-8.8-4.1-8.8-8.2c0-6.9,6.2-10.7,17.2-10.7v-0.6
			c0-2.4-0.7-6.6-6.5-6.6c-2.7,0-5.4,0.8-7.5,2.1l-1.2-3.4c2.4-1.5,5.8-2.5,9.4-2.5c8.8,0,10.9,6,10.9,11.7V128
			c0,2.5,0.1,4.9,0.5,6.9H153.4z M152.7,120.3c-5.7-0.1-12.1,0.9-12.1,6.5c0,3.4,2.3,5,4.9,5c3.7,0,6.1-2.4,6.9-4.8
			c0.2-0.5,0.3-1.1,0.3-1.7V120.3z"/>
		<path class="st2" d="M190.9,92.9v34.6c0,2.5,0.1,5.4,0.2,7.4h-4.7l-0.2-5h-0.1c-1.6,3.2-5.1,5.6-9.8,5.6
			c-6.9,0-12.3-5.9-12.3-14.6c-0.1-9.5,5.9-15.4,12.8-15.4c4.4,0,7.3,2.1,8.6,4.4h0.1V92.9H190.9z M185.7,117.9
			c0-0.7-0.1-1.5-0.2-2.2c-0.8-3.3-3.6-6-7.5-6c-5.4,0-8.6,4.7-8.6,11.1c0,5.8,2.8,10.6,8.5,10.6c3.5,0,6.7-2.3,7.6-6.2
			c0.2-0.7,0.2-1.4,0.2-2.3V117.9z"/>
		<path class="st2" d="M202.4,121.5c0.1,7,4.6,9.9,9.8,9.9c3.7,0,6-0.7,7.9-1.5l0.9,3.7c-1.8,0.8-5,1.8-9.5,1.8
			c-8.8,0-14.1-5.8-14.1-14.4c0-8.6,5.1-15.5,13.4-15.5c9.4,0,11.8,8.2,11.8,13.5c0,1.1-0.1,1.9-0.2,2.4H202.4z M217.7,117.8
			c0.1-3.3-1.4-8.5-7.2-8.5c-5.3,0-7.6,4.9-8,8.5H217.7z"/>
		<path class="st2" d="M229.2,92.9h5.2v42h-5.2V92.9z"/>
		<path class="st2" d="M245,106.3l6.3,16.9c0.7,1.9,1.4,4.1,1.8,5.9h0.1c0.5-1.7,1.1-3.9,1.8-6l5.7-16.8h5.5l-7.8,20.4
			c-3.7,9.8-6.3,14.9-9.8,17.9c-2.5,2.3-5.1,3.1-6.4,3.4l-1.3-4.4c1.3-0.4,3-1.2,4.6-2.5c1.4-1.1,3.2-3.1,4.4-5.8
			c0.2-0.5,0.4-0.9,0.4-1.2s-0.1-0.7-0.4-1.4l-10.6-26.4H245z"/>
	</g>
</g>
</svg>
