<?xml version="1.0" encoding="utf-8"?>
<!-- Generator: Adobe Illustrator 19.0.0, SVG Export Plug-In . SVG Version: 6.00 Build 0)  -->
<svg version="1.1" id="Layer_1" xmlns="http://www.w3.org/2000/svg" xmlns:xlink="http://www.w3.org/1999/xlink" x="0px" y="0px"
	 viewBox="-325 188.6 307.6 185.4" style="enable-background:new -325 188.6 307.6 185.4;" xml:space="preserve">
<style type="text/css">
	.st0{fill:#FFFFFF;}
	.st1{fill:#0C0C0C;}
</style>
<g>
	<g>
		<path class="st0" d="M-17.4,301.9v8.5c-2.2,33.4-5.9,60.9-37.6,63.5h-6.7c-36.1-4.8-68.9-13.6-109.5-13.6s-73.5,8.9-109.5,13.6
			h-6.7c-31-2.3-34.9-28.5-37.6-60.3v-15.5c1.7-24,5.7-44,20.9-53.6c11.1-7,30.2-5,46.1-1.9c15.4-29.8,43.3-54,86.8-54
			c43.9,0,71.4,24.7,87.1,54c13.8-2.5,32.4-5.2,43.7,0.6C-21.9,252.9-19.1,274.6-17.4,301.9"/>
	</g>
	<g>
		<path class="st1" d="M-151.3,255.2c-12,9.1-27,9.7-33.5,1.3s-2.1-22.7,9.9-31.8c12-9.1,27-9.7,33.5-1.3
			C-134.9,231.8-139.3,246-151.3,255.2"/>
	</g>
	<g>
		<path d="M-217.7,215.7c2.6,1.8,8.9,5.8,17.7,9.9c11.7,5.4,31.9,14.7,31.9,14.7l0.9-2.1c0,0-20-9.6-31.7-15.1
			C-207.6,218.9-214.7,216.6-217.7,215.7"/>
	</g>
	<g>
		<path class="st1" d="M-133.9,254.8c-2.6-1.8-8.9-5.7-17.7-9.8c-11.7-5.4-24.1-11-24.1-11l-0.9,2.1c0,0,12.2,5.9,23.9,11.4
			C-144.1,251.6-137,253.9-133.9,254.8"/>
	</g>
	<g>
		<path class="st0" d="M-147.3,224h-0.3c-2.3,0-4.2,1.8-4.3,4c0.6-1.2,1.8-2.1,3.2-2.1c2,0,3.5,1.6,3.5,3.5c0,1.8-1.3,3.2-3,3.5
			c0.2,0,0.4,0.1,0.6,0.1h0.3c2.4,0,4-2,4-4.4v-0.3C-143.2,225.8-144.9,224-147.3,224"/>
	</g>
	<g>
		<path d="M-285.7,284.1c2.5-0.4,5.7-0.8,9.9-0.8c5.1,0,8.8,1.2,11.2,3.3c2.2,1.9,3.5,4.8,3.5,8.3c0,3.6-1.1,6.5-3.1,8.5
			c-2.7,2.9-7.2,4.4-12.2,4.4c-1.5,0-3-0.1-4.1-0.4v16h-5.2V284.1z M-280.5,303.3c1.1,0.3,2.5,0.4,4.3,0.4c6.2,0,10-3,10-8.5
			c0-5.3-3.7-7.8-9.4-7.8c-2.3,0-4,0.2-4.9,0.4V303.3z"/>
		<path d="M-248.5,286.8c0.1,1.8-1.2,3.2-3.3,3.2c-1.8,0-3.1-1.4-3.1-3.2c0-1.8,1.4-3.3,3.3-3.3C-249.8,283.5-248.5,285-248.5,286.8
			z M-254.3,323.5v-28.7h5.2v28.7H-254.3z"/>
		<path d="M-220.1,322.4c-1.4,0.7-4.4,1.7-8.2,1.7c-8.6,0-14.3-5.9-14.3-14.6c0-8.8,6-15.2,15.4-15.2c3.1,0,5.8,0.8,7.2,1.5l-1.2,4
			c-1.2-0.7-3.2-1.4-6-1.4c-6.6,0-10.1,4.9-10.1,10.8c0,6.6,4.3,10.7,9.9,10.7c3,0,4.9-0.8,6.4-1.4L-220.1,322.4z"/>
		<path d="M-193.5,322.4c-1.4,0.7-4.4,1.7-8.2,1.7c-8.6,0-14.3-5.9-14.3-14.6c0-8.8,6-15.2,15.4-15.2c3.1,0,5.8,0.8,7.2,1.5l-1.2,4
			c-1.2-0.7-3.2-1.4-6-1.4c-6.6,0-10.1,4.9-10.1,10.8c0,6.6,4.3,10.7,9.9,10.7c3,0,4.9-0.8,6.4-1.4L-193.5,322.4z"/>
		<path d="M-171.6,323.5l-0.4-3.6h-0.2c-1.6,2.3-4.7,4.3-8.8,4.3c-5.8,0-8.8-4.1-8.8-8.2c0-6.9,6.2-10.7,17.2-10.7v-0.6
			c0-2.4-0.7-6.6-6.5-6.6c-2.7,0-5.4,0.8-7.5,2.1l-1.2-3.4c2.4-1.5,5.8-2.5,9.4-2.5c8.8,0,10.9,6,10.9,11.7v10.6
			c0,2.5,0.1,4.9,0.5,6.9H-171.6z M-172.3,308.9c-5.7-0.1-12.1,0.9-12.1,6.5c0,3.4,2.3,5,4.9,5c3.7,0,6.1-2.4,6.9-4.8
			c0.2-0.5,0.3-1.1,0.3-1.7L-172.3,308.9L-172.3,308.9z"/>
		<path d="M-134.1,281.5v34.6c0,2.5,0.1,5.4,0.2,7.4h-4.7l-0.2-5h-0.1c-1.6,3.2-5.1,5.6-9.8,5.6c-6.9,0-12.3-5.9-12.3-14.6
			c-0.1-9.5,5.9-15.4,12.8-15.4c4.4,0,7.3,2.1,8.6,4.4h0.1v-17H-134.1z M-139.3,306.5c0-0.7-0.1-1.5-0.2-2.2c-0.8-3.3-3.6-6-7.5-6
			c-5.4,0-8.6,4.7-8.6,11.1c0,5.8,2.8,10.6,8.5,10.6c3.5,0,6.7-2.3,7.6-6.2c0.2-0.7,0.2-1.4,0.2-2.3V306.5z"/>
		<path d="M-122.6,310.1c0.1,7,4.6,9.9,9.8,9.9c3.7,0,6-0.7,7.9-1.5l0.9,3.7c-1.8,0.8-5,1.8-9.5,1.8c-8.8,0-14.1-5.8-14.1-14.4
			s5.1-15.5,13.4-15.5c9.4,0,11.8,8.2,11.8,13.5c0,1.1-0.1,1.9-0.2,2.4h-20V310.1z M-107.3,306.4c0.1-3.3-1.4-8.5-7.2-8.5
			c-5.3,0-7.6,4.9-8,8.5H-107.3z"/>
		<path d="M-95.8,281.5h5.2v42h-5.2V281.5z"/>
		<path d="M-80,294.9l6.3,16.9c0.7,1.9,1.4,4.1,1.8,5.9h0.1c0.5-1.7,1.1-3.9,1.8-6l5.7-16.8h5.5l-7.8,20.4
			c-3.7,9.8-6.3,14.9-9.8,17.9c-2.5,2.3-5.1,3.1-6.4,3.4l-1.3-4.4c1.3-0.4,3-1.2,4.6-2.5c1.4-1.1,3.2-3.1,4.4-5.8
			c0.2-0.5,0.4-0.9,0.4-1.2s-0.1-0.7-0.4-1.4l-10.6-26.4C-85.7,294.9-80,294.9-80,294.9z"/>
	</g>
</g>
</svg>
